<svg width="256" height="256" viewBox="0 0 256 256" xmlns="http://www.w3.org/2000/svg"><path d="M128 59c19.054 0 36.304 7.723 48.79 20.21C189.277 91.696 197 108.946 197 128s-7.723 36.304-20.21 48.79C164.304 189.277 147.054 197 128 197s-36.304-7.723-48.79-20.21C66.723 164.304 59 147.054 59 128s7.723-36.304 20.21-48.79C91.696 66.723 108.946 59 128 59zm25.51 28.565L128 113.075l-25.51-25.51-14.925 14.925 25.51 25.51-25.51 25.51 14.925 14.925 25.51-25.51 25.51 25.51 14.925-14.925-25.51-25.51 25.51-25.51-14.925-14.925z" stroke="#000" stroke-width="3" fill="#FFF" fill-rule="evenodd" stroke-opacity=".404"/></svg>