<svg width="256" height="256" viewBox="0 0 256 256" xmlns="http://www.w3.org/2000/svg"><path d="M128 58.5c19.192 0 36.567 7.78 49.144 20.356C189.72 91.433 197.5 108.808 197.5 128c0 19.192-7.78 36.567-20.356 49.144C164.567 189.72 147.192 197.5 128 197.5c-19.192 0-36.567-7.78-49.144-20.356C66.28 164.567 58.5 147.192 58.5 128c0-19.192 7.78-36.567 20.356-49.144C91.433 66.28 108.808 58.5 128 58.5zm6.73 57.701h-17.023l.092.04c.988.438 1.723.946 2.23 1.488.993 1.065 1.718 2.938 1.768 6.3h0v35.29l-.004.373c-.064 3.32-.99 5.514-2.416 6.797h0l-.139.12a6.135 6.135 0 01-1.278.796h0l-.111.05h20.508l-.152-.07c-.712-.343-1.269-.718-1.68-1.109-.96-.912-1.75-2.79-1.795-6.477h0v-43.598zm-6.437-27.656c-2.025 0-3.75.712-5.178 2.139-1.426 1.426-2.138 3.153-2.138 5.177 0 2.025.712 3.751 2.138 5.178 1.427 1.427 3.153 2.139 5.178 2.139 1.99 0 3.696-.716 5.119-2.14 1.427-1.426 2.139-3.152 2.139-5.177 0-2.024-.712-3.75-2.139-5.177-1.423-1.423-3.128-2.14-5.119-2.14z" stroke="#000" stroke-width="4" fill="#FFF" fill-rule="evenodd"/></svg>