<svg width="256" height="256" viewBox="0 0 256 256" xmlns="http://www.w3.org/2000/svg"><path d="M128 58.5c19.192 0 36.567 7.78 49.144 20.356C189.72 91.433 197.5 108.808 197.5 128c0 19.192-7.78 36.567-20.356 49.144C164.567 189.72 147.192 197.5 128 197.5c-19.192 0-36.567-7.78-49.144-20.356C66.28 164.567 58.5 147.192 58.5 128c0-19.192 7.78-36.567 20.356-49.144C91.433 66.28 108.808 58.5 128 58.5zm25.51 29.772L128 113.782l-25.51-25.51-14.218 14.218 25.51 25.51-25.51 25.51 14.218 14.218 25.51-25.51 25.51 25.51 14.218-14.218-25.51-25.51 25.51-25.51-14.218-14.218z" stroke="#000" stroke-width="4" fill="#FFF" fill-rule="evenodd"/></svg>