<svg width="256" height="256" viewBox="0 0 256 256" xmlns="http://www.w3.org/2000/svg"><g fill="none" fill-rule="evenodd"><circle stroke="#000" stroke-width="12" fill="#FFF" cx="128" cy="128" r="73.5"/><path d="M128.293 105.178c2.539 0 4.717-.908 6.533-2.725 1.817-1.816 2.725-4.014 2.725-6.592 0-2.578-.908-4.775-2.725-6.591-1.816-1.817-3.994-2.725-6.533-2.725-2.578 0-4.775.908-6.592 2.725-1.816 1.816-2.724 4.013-2.724 6.591 0 2.578.908 4.776 2.724 6.592 1.817 1.817 4.014 2.725 6.592 2.725zm14.004 64.277v-2.871c-2.149-.43-3.613-1.016-4.395-1.758-.78-.742-1.172-2.422-1.172-5.039v-45.586h-23.027v2.93c2.422.43 4.043 1.084 4.863 1.963.82.879 1.23 2.529 1.23 4.95v35.274c0 2.735-.585 4.63-1.757 5.684-.781.703-2.227 1.23-4.336 1.582v2.871h28.594z" fill="#000" fill-rule="nonzero"/></g></svg>