<svg width="100%" height="100%" viewBox="0 0 3157 2500" version="1.1" xmlns="http://www.w3.org/2000/svg" xmlns:xlink="http://www.w3.org/1999/xlink">
    <title>cosmopolitan</title>
    <g id="cosmopolitan" stroke="none" stroke-width="1" fill="none" fill-rule="evenodd">
        <image id="illustration" x="0" y="0" width="3157" height="2500" href="/img/illustration/cosmopolitan.webp"/>
        <g id="rice">
            <polygon id="bubble" stroke="#979797" fill="#D8D8D8" points="2076 343 2775 343 2775 597 2076 597 2076 577.6992190000001 2017.6933589999999 526.675781 2076 539.521484"/>
            <rect id="rect" fill="#FF0000" x="2076" y="343" width="699" height="254"/>
            <rect id="viewrect" stroke="#FFFFFF" stroke-width="2" x="1424" y="312" width="1381" height="396"/>
        </g>
        <g id="fruit">
            <polygon id="bubble" stroke="#979797" fill="#D8D8D8" points="91 824 91 452 981 452 981 757.5 1087.39844 905.0859379999999 926.640625 809"/>
            <rect id="rect" fill="#FF0000" x="91" y="452" width="890" height="357"/>
            <rect id="viewrect" stroke="#FFFFFF" stroke-width="2" x="0" y="428" width="2073" height="1138"/>
        </g>
        <g id="influencers">
            <rect id="bubble" stroke="#979797" fill="#D8D8D8" x="234" y="1604" width="775" height="197"/>
            <rect id="rect" fill="#FF0000" x="234" y="1604" width="775" height="197"/>
            <rect id="viewrect" stroke="#FFFFFF" stroke-width="2" x="0" y="1576" width="1042" height="924"/>
        </g>
        <g id="agreements">
            <rect id="bubble" stroke="#979797" fill="#D8D8D8" x="962" y="2081" width="713" height="311"/>
            <rect id="rect" fill="#FF0000" x="962" y="2081" width="713" height="311"/>
            <rect id="viewrect" stroke="#FFFFFF" stroke-width="2" x="889" y="1955" width="1870" height="545"/>
        </g>
        <g id="fisheries">
            <rect id="bubble" stroke="#979797" fill="#D8D8D8" x="2343" y="1387" width="738" height="255"/>
            <rect id="rect" fill="#FF0000" x="2343" y="1387" width="738" height="255"/>
            <rect id="viewrect" stroke="#FFFFFF" stroke-width="2" x="1856" y="1300" width="1301" height="623"/>
        </g>
        <g id="ethical_consumption">
            <rect id="bubble" stroke="#979797" fill="#D8D8D8" x="1204" y="1714" width="715" height="262"/>
            <rect id="rect" fill="#FF0000" x="1204" y="1714" width="715" height="262"/>
            <rect id="viewrect" stroke="#FFFFFF" stroke-width="2" x="970" y="1537" width="988" height="508"/>
        </g>
        <g id="social_businesses">
            <polygon id="bubble" fill="#0BBB00" points="2283 620 3002 620 3002 780 2630.484375 780 2630.484375 856 2581.671875 780 2283 780"/>
            <rect id="rect" fill="#FF0000" x="2283" y="620" width="719" height="160"/>
            <rect id="viewrect" stroke="#FFFFFF" stroke-width="2" x="2107" y="593" width="1050" height="762"/>
        </g>
    </g>
</svg>