<svg width="100%" height="100%" viewBox="0 0 3157 2500" version="1.1" xmlns="http://www.w3.org/2000/svg" xmlns:xlink="http://www.w3.org/1999/xlink">
    <g id="desperate" stroke="none" stroke-width="1" fill="none" fill-rule="evenodd">
        <image id="illustration" x="0" y="0" width="3157" height="2500" href="/img/illustration/desperate.webp"/>
        <g id="mass_vegetables">
            <polygon id="bubble" stroke="#720000" fill="#D8D8D8" points="2376 349 2376 523 2042.521 523 2049.28125 589.2851559999999 1951.913 523 1482 523 1482 349"/>
            <rect id="viewrect" stroke="#FFFFFF" stroke-width="2" x="1430" y="297" width="1727" height="857"/>
            <rect id="rect" fill="#FF0000" x="1482.4296875" y="347.3125" width="893" height="177"/>
        </g>
        <g id="insect_pollination">
            <polygon id="bubble" stroke="#720000" fill="#D8D8D8" points="2975.999996 1163 2976.999996 1403 2276 1403 2275.999656 1386.371 2106.472656 1448.2890619999998 2275.999656 1287.191 2276 1163"/>
            <rect id="viewrect" stroke="#FFFFFF" stroke-width="2" x="1470.99999975" y="864" width="1612" height="1026"/>
            <rect id="rect" fill="#FF0000" x="2276.972656" y="1161.5" width="702" height="243"/>
        </g>
        <g id="pesticide_resistant">
            <polygon id="bubble" stroke="#720000" fill="#D8D8D8" points="715 1578 715 1738.9180000000001 771.970703 1761.074219 715 1788.35 715 1927 37 1927 37 1578"/>
            <rect id="viewrect" stroke="#FFFFFF" stroke-width="2" x="0" y="1391" width="1579" height="584"/>
            <rect id="rect" fill="#FF0000" x="36" y="1574" width="680" height="354"/>
        </g>
        <g id="weather_patterns">
            <polygon id="bubble" stroke="#720000" fill="#D8D8D8" points="541.712891 2180.425781 578.387 2298.999781 1332 2299 1332 2472 476 2472 476 2299 505.037 2298.999781"/>
            <rect id="viewrect" stroke="#FFFFFF" stroke-width="2" x="0" y="1926.99999975" width="1402" height="573"/>
            <rect id="rect" fill="#FF0000" x="476.429688" y="2299.3125" width="855" height="173"/>
        </g>
        <g id="printed_product">
            <rect id="viewrect" stroke="#FFFFFF" stroke-width="2" x="2324" y="1487" width="833" height="725"/>
            <polygon id="bubble" stroke="#720000" fill="#D8D8D8" points="3020 1563 3020 1918 2571.076 1918 2550.917969 1983.160156 2504.889 1918 2383 1918 2383 1563"/>
            <rect id="rect" fill="#FF0000" x="2383.4296875" y="1563.3125" width="637" height="356"/>
        </g>
        <g id="climate_change">
            <rect id="viewrect" stroke="#FFFFFF" stroke-width="2" x="0" y="236" width="1438" height="747"/>
            <polygon id="bubble" stroke="#720000" fill="#D8D8D8" points="1366.5 322.5 1366.5 577 834.975 577 793.081055 633.991211 793.081 577 696 577 696 322.5"/>
            <rect id="rect" fill="#FF0000" x="696" y="322.3125" width="671" height="254"/>
        </g>
        <g id="home_sprouts">
            <polygon id="bubble" stroke="#720000" fill="#D8D8D8" points="1349.429688 2120.3750005 1349.429688 2333.3125010000003 1880.839844 2333.3125010000003 1960.351563 2326.212891 1960.351563 2310.792969 2030.2031259999999 2292.710938 1965.480469 2260.335938 1965.480469 2114.492188"/>
            <rect id="viewrect" stroke="#FFFFFF" stroke-width="2" x="1307.9999994999998" y="2078.9999995000003" width="1849" height="421"/>
            <rect id="rect" fill="#FF0000" x="1349.429688" y="2114.3125005" width="617" height="219"/>
        </g>
    </g>
</svg>